# xmcd
#
# Track frame offsets:
# 182
# 8997
# 20535
# 32575
# 43515
# 56105
# 67997
# 80015
# 92312
# 103197
# 117847
# 127655
# 139507
# 158720
# 171200
# 184687
# 196822
# 210080
# 222982
# 237247
# 249912
# 265732
# 280122
# 298150
# 310875
# 323170
#
# Disc length: 4536 seconds
#
#
# Revision: 5
# Processed by: cddbd v1.5.2PL0 Copyright (c) Steve Scherf et al.
# Submitted via: FreeRIP 2.945 
#
DISCID=5f11b61a
DTITLE=Otis Redding - Dreams To Remember - The Otis Redding Anthology [CD1]
DYEAR=1998
DGENRE=Soul
TTITLE0=Shout Bamalama
TTITLE1=These Arms Of Mine
TTITLE2=That's What My Heart Needs
TTITLE3=Pain In My Heart
TTITLE4=Come To Me
TTITLE5=Security
TTITLE6=Chained And Bound
TTITLE7=Mr. Pitiful
TTITLE8=That's How Strong My Love Is
TTITLE9=I've Been Loving You Too Long (To Stop Now)
TTITLE10=Respect
TTITLE11=Ole Man Trouble
TTITLE12=Change Gonna Come
TTITLE13=Satisfaction
TTITLE14=Down In The Valley
TTITLE15=Shake
TTITLE16=My Girl
TTITLE17=You Don't Miss Your Water
TTITLE18=Cupid
TTITLE19=I Can't Turn You Loose
TTITLE20=Just One More Day
TTITLE21=My Lover's Prayer
TTITLE22=Cigarettes And Coffee
TTITLE23=It's Growing
TTITLE24=Fa-Fa-Fa-Fa-Fa (Sad Song)
TTITLE25=Try A Little Tenderness
EXTD=disc 1/2
EXTT0=
EXTT1=
EXTT2=
EXTT3=
EXTT4=
EXTT5=
EXTT6=
EXTT7=
EXTT8=
EXTT9=
EXTT10=
EXTT11=
EXTT12=
EXTT13=
EXTT14=
EXTT15=
EXTT16=
EXTT17=
EXTT18=
EXTT19=
EXTT20=
EXTT21=
EXTT22=
EXTT23=
EXTT24=
EXTT25=
PLAYORDER=
